<svg viewBox="0 0 330 200" xmlns="http://www.w3.org/2000/svg"><g><g><g><g><g><line x1="50" y1="178" x2="45" y2="178" style="visibility: inherit;" fill="rgb(0, 0, 0)" stroke="rgb(204, 204, 204)" stroke-width="1px"></line><line x1="50" y1="163.16666666666666" x2="45" y2="163.16666666666666" style="visibility: inherit;" fill="rgb(0, 0, 0)" stroke="rgb(204, 204, 204)" stroke-width="1px"></line><line x1="50" y1="148.33333333333334" x2="45" y2="148.33333333333334" style="visibility: inherit;" fill="rgb(0, 0, 0)" stroke="rgb(204, 204, 204)" stroke-width="1px"></line><line x1="50" y1="133.5" x2="45" y2="133.5" style="visibility: inherit;" fill="rgb(0, 0, 0)" stroke="rgb(204, 204, 204)" stroke-width="1px"></line><line x1="50" y1="118.66666666666667" x2="45" y2="118.66666666666667" style="visibility: inherit;" fill="rgb(0, 0, 0)" stroke="rgb(204, 204, 204)" stroke-width="1px"></line><line x1="50" y1="103.83333333333334" x2="45" y2="103.83333333333334" style="visibility: inherit;" fill="rgb(0, 0, 0)" stroke="rgb(204, 204, 204)" stroke-width="1px"></line><line x1="50" y1="89.00000000000001" x2="45" y2="89.00000000000001" style="visibility: inherit;" fill="rgb(0, 0, 0)" stroke="rgb(204, 204, 204)" stroke-width="1px"></line><line x1="50" y1="74.16666666666669" x2="45" y2="74.16666666666669" style="visibility: inherit;" fill="rgb(0, 0, 0)" stroke="rgb(204, 204, 204)" stroke-width="1px"></line><line x1="50" y1="59.33333333333336" x2="45" y2="59.33333333333336" style="visibility: inherit;" fill="rgb(0, 0, 0)" stroke="rgb(204, 204, 204)" stroke-width="1px"></line><line x1="50" y1="44.50000000000003" x2="45" y2="44.50000000000003" style="visibility: inherit;" fill="rgb(0, 0, 0)" stroke="rgb(204, 204, 204)" stroke-width="1px"></line><line x1="50" y1="29.666666666666686" x2="45" y2="29.666666666666686" style="visibility: inherit;" fill="rgb(0, 0, 0)" stroke="rgb(204, 204, 204)" stroke-width="1px"></line><line x1="50" y1="14.833333333333343" x2="45" y2="14.833333333333343" style="visibility: inherit;" fill="rgb(0, 0, 0)" stroke="rgb(204, 204, 204)" stroke-width="1px"></line><line x1="50" y1="0" x2="45" y2="0" style="visibility: inherit;" fill="rgb(0, 0, 0)" stroke="rgb(204, 204, 204)" stroke-width="1px"></line></g><g transform="translate(40, 0)"><text x="0" y="178" dx="0em" dy="0.3em" style="text-anchor: end; visibility: hidden; font-family: &quot;Helvetica Neue&quot;, sans-serif; font-size: 12px; font-weight: 200;" fill="rgb(50, 49, 63)" stroke="none" stroke-width="1px">-0.1</text><text x="0" y="163.16666666666666" dx="0em" dy="0.3em" style="text-anchor: end; visibility: inherit; font-family: &quot;Helvetica Neue&quot;, sans-serif; font-size: 12px; font-weight: 200;" fill="rgb(50, 49, 63)" stroke="none" stroke-width="1px">0</text><text x="0" y="148.33333333333334" dx="0em" dy="0.3em" style="text-anchor: end; visibility: hidden; font-family: &quot;Helvetica Neue&quot;, sans-serif; font-size: 12px; font-weight: 200;" fill="rgb(50, 49, 63)" stroke="none" stroke-width="1px">0.1</text><text x="0" y="133.5" dx="0em" dy="0.3em" style="text-anchor: end; visibility: inherit; font-family: &quot;Helvetica Neue&quot;, sans-serif; font-size: 12px; font-weight: 200;" fill="rgb(50, 49, 63)" stroke="none" stroke-width="1px">0.2</text><text x="0" y="118.66666666666667" dx="0em" dy="0.3em" style="text-anchor: end; visibility: hidden; font-family: &quot;Helvetica Neue&quot;, sans-serif; font-size: 12px; font-weight: 200;" fill="rgb(50, 49, 63)" stroke="none" stroke-width="1px">0.3</text><text x="0" y="103.83333333333334" dx="0em" dy="0.3em" style="text-anchor: end; visibility: inherit; font-family: &quot;Helvetica Neue&quot;, sans-serif; font-size: 12px; font-weight: 200;" fill="rgb(50, 49, 63)" stroke="none" stroke-width="1px">0.4</text><text x="0" y="89.00000000000001" dx="0em" dy="0.3em" style="text-anchor: end; visibility: hidden; font-family: &quot;Helvetica Neue&quot;, sans-serif; font-size: 12px; font-weight: 200;" fill="rgb(50, 49, 63)" stroke="none" stroke-width="1px">0.5</text><text x="0" y="74.16666666666669" dx="0em" dy="0.3em" style="text-anchor: end; visibility: inherit; font-family: &quot;Helvetica Neue&quot;, sans-serif; font-size: 12px; font-weight: 200;" fill="rgb(50, 49, 63)" stroke="none" stroke-width="1px">0.6</text><text x="0" y="59.33333333333336" dx="0em" dy="0.3em" style="text-anchor: end; visibility: hidden; font-family: &quot;Helvetica Neue&quot;, sans-serif; font-size: 12px; font-weight: 200;" fill="rgb(50, 49, 63)" stroke="none" stroke-width="1px">0.7</text><text x="0" y="44.50000000000003" dx="0em" dy="0.3em" style="text-anchor: end; visibility: inherit; font-family: &quot;Helvetica Neue&quot;, sans-serif; font-size: 12px; font-weight: 200;" fill="rgb(50, 49, 63)" stroke="none" stroke-width="1px">0.8</text><text x="0" y="29.666666666666686" dx="0em" dy="0.3em" style="text-anchor: end; visibility: hidden; font-family: &quot;Helvetica Neue&quot;, sans-serif; font-size: 12px; font-weight: 200;" fill="rgb(50, 49, 63)" stroke="none" stroke-width="1px">0.9</text><text x="0" y="14.833333333333343" dx="0em" dy="0.3em" style="text-anchor: end; visibility: inherit; font-family: &quot;Helvetica Neue&quot;, sans-serif; font-size: 12px; font-weight: 200;" fill="rgb(50, 49, 63)" stroke="none" stroke-width="1px">1</text><text x="0" y="0" dx="0em" dy="0.3em" style="text-anchor: end; visibility: hidden; font-family: &quot;Helvetica Neue&quot;, sans-serif; font-size: 12px; font-weight: 200;" fill="rgb(50, 49, 63)" stroke="none" stroke-width="1px">1.1</text></g><line x1="50" y1="0" x2="50" y2="178" fill="rgb(0, 0, 0)" stroke="rgb(204, 204, 204)" stroke-width="1px"></line></g></g><g transform="translate(50, 0)" clip-path="url(#clip_0)"><clipPath id="clip_0"><rect width="280" height="178"></rect></clipPath><g><g><g><line x1="0" y1="0" x2="0" y2="178" fill="rgb(0, 0, 0)" stroke="rgb(60, 60, 60)" stroke-width="1px" opacity="0.25"></line><line x1="40" y1="0" x2="40" y2="178" fill="rgb(0, 0, 0)" stroke="rgb(60, 60, 60)" stroke-width="1px" opacity="0.25"></line><line x1="80" y1="0" x2="80" y2="178" fill="rgb(0, 0, 0)" stroke="rgb(60, 60, 60)" stroke-width="1px" opacity="0.25"></line><line x1="120" y1="0" x2="120" y2="178" fill="rgb(0, 0, 0)" stroke="rgb(60, 60, 60)" stroke-width="1px" opacity="0.25"></line><line x1="160" y1="0" x2="160" y2="178" fill="rgb(0, 0, 0)" stroke="rgb(60, 60, 60)" stroke-width="1px" opacity="0.25"></line><line x1="200" y1="0" x2="200" y2="178" fill="rgb(0, 0, 0)" stroke="rgb(60, 60, 60)" stroke-width="1px" opacity="0.25"></line><line x1="240" y1="0" x2="240" y2="178" fill="rgb(0, 0, 0)" stroke="rgb(60, 60, 60)" stroke-width="1px" opacity="0.25"></line><line x1="280" y1="0" x2="280" y2="178" fill="rgb(0, 0, 0)" stroke="rgb(60, 60, 60)" stroke-width="1px" opacity="0.25"></line></g><g><line x1="0" y1="178" x2="280" y2="178" fill="rgb(0, 0, 0)" stroke="rgb(60, 60, 60)" stroke-width="1px" opacity="0.25"></line><line x1="0" y1="163.16666666666666" x2="280" y2="163.16666666666666" fill="rgb(0, 0, 0)" stroke="rgb(60, 60, 60)" stroke-width="1px" opacity="0.25"></line><line x1="0" y1="148.33333333333334" x2="280" y2="148.33333333333334" fill="rgb(0, 0, 0)" stroke="rgb(60, 60, 60)" stroke-width="1px" opacity="0.25"></line><line x1="0" y1="133.5" x2="280" y2="133.5" fill="rgb(0, 0, 0)" stroke="rgb(60, 60, 60)" stroke-width="1px" opacity="0.25"></line><line x1="0" y1="118.66666666666667" x2="280" y2="118.66666666666667" fill="rgb(0, 0, 0)" stroke="rgb(60, 60, 60)" stroke-width="1px" opacity="0.25"></line><line x1="0" y1="103.83333333333334" x2="280" y2="103.83333333333334" fill="rgb(0, 0, 0)" stroke="rgb(60, 60, 60)" stroke-width="1px" opacity="0.25"></line><line x1="0" y1="89.00000000000001" x2="280" y2="89.00000000000001" fill="rgb(0, 0, 0)" stroke="rgb(60, 60, 60)" stroke-width="1px" opacity="0.25"></line><line x1="0" y1="74.16666666666669" x2="280" y2="74.16666666666669" fill="rgb(0, 0, 0)" stroke="rgb(60, 60, 60)" stroke-width="1px" opacity="0.25"></line><line x1="0" y1="59.33333333333336" x2="280" y2="59.33333333333336" fill="rgb(0, 0, 0)" stroke="rgb(60, 60, 60)" stroke-width="1px" opacity="0.25"></line><line x1="0" y1="44.50000000000003" x2="280" y2="44.50000000000003" fill="rgb(0, 0, 0)" stroke="rgb(60, 60, 60)" stroke-width="1px" opacity="0.25"></line><line x1="0" y1="29.666666666666686" x2="280" y2="29.666666666666686" fill="rgb(0, 0, 0)" stroke="rgb(60, 60, 60)" stroke-width="1px" opacity="0.25"></line><line x1="0" y1="14.833333333333343" x2="280" y2="14.833333333333343" fill="rgb(0, 0, 0)" stroke="rgb(60, 60, 60)" stroke-width="1px" opacity="0.25"></line><line x1="0" y1="0" x2="280" y2="0" fill="rgb(0, 0, 0)" stroke="rgb(60, 60, 60)" stroke-width="1px" opacity="0.25"></line></g></g></g><g><g><line x1="0" y1="163.16666666666666" x2="280" y2="163.16666666666666" fill="rgb(0, 0, 0)" stroke="rgb(153, 153, 153)" stroke-width="1.5px"></line></g></g><g><g><line x1="40" y1="0" x2="40" y2="178" fill="rgb(0, 0, 0)" stroke="rgb(153, 153, 153)" stroke-width="1.5px"></line></g></g><g><g><g><g><g><path stroke="rgb(255, 112, 67)" stroke-width="2px" d="M53.104,-0.2691872271975626L53.96,5.652696107862624L54.136,9.558826074114648L54.224000000000004,23.069818782061276L54.544,38.027347481719346L54.68,32.92937599605139L54.784,44.73780651286194L55.495999999999995,41.547975314025166L55.976,53.28417483909017L56.70399999999999,47.868710914904966L56.8,61.91263261616072L57.056000000000004,65.99983218816915L57.104,66.32857854867783L57.304,61.67529244246924L57.664,66.70907697095207L58.32,72.31244876194255L58.696000000000005,74.90653644129594L58.832,82.95011979018633L58.848,81.91947113081804L58.888,77.21135727527732L59.088,82.12567590453025L59.096000000000004,83.57176179952104L59.192,80.73016050219543L59.232,88.70025453225779L59.464,88.57441961719198L59.583999999999996,80.44533842377031L59.632,71.03630592170654L40.327999999999996,70.45343605126916L40.768,75.54452878303915L42.584,81.47115026752705L43.151999999999994,97.97724597160352L43.176,111.15057198308507L43.64,95.35533943237424L44.135999999999996,110.65943316297668L44.687999999999995,106.20419823136093L44.800000000000004,112.35429167155124L44.816,105.7382093394023L44.824,112.87375353520444L45.288,99.32197907812593L46.687999999999995,109.7833375250133L47.791999999999994,103.12893613466612L47.808,110.82805272115662L48.208,104.95574940546392L48.775999999999996,111.64736558181467L49.192,109.47734196096117L49.36,111.79707418944113L49.416,110.93005856116021L50.272,104.46301545444769L50.495999999999995,107.17169848130332L50.72,108.43540648448182L51.135999999999996,110.13561407224961L51.632000000000005,113.19771867293098L52.416000000000004,115.6924352484821L52.663999999999994,119.26461074975404L52.704,110.96411421037082L53.384,112.76018844129463L53.400000000000006,119.11684110014728L54.048,121.78053430864668L54.784,124.34778049478604L54.92,119.97008900377955L55.088,118.08464672088905L56.16,112.90696165116798L56.19199999999999,120.78192348570924L56.256,119.74765478347521L57.152,120.4576928304123L57.263999999999996,117.18571610171517L57.568,123.75662649424228L57.664,127.96352219036035L58.00000000000001,122.96318410307654L58.616,118.65261100413693L59.248000000000005,120.97123198915897L59.263999999999996,129.42771046882496L59.696,125.95336468334372L59.92,116.90206073114501L60.76,116.55512327982521L61.608000000000004,116.95993906875573L61.72,119.78087943367235L62.208,121.22755494260039L63.24,124.18562224036401L64.28,120.82656766887078L64.632,127.35139289646686L65.312,132.15248274892176L65.47200000000001,134.16396509064995L65.75999999999999,129.35034928592302L65.816,136.85200339876965L66.104,133.9894427596928L66.27199999999999,133.7150543335717L66.768,133.72211156310485L66.928,126.92714713427532L67.816,124.94282187072302L67.896,126.22809628872791L68.448,134.23912303882074L68.55199999999999,132.56456963163953L68.6,133.99004509812L68.70400000000001,132.98621785699567L69.16,130.63525520598438L69.344,133.3071559002134L69.856,133.37619644980427L71.008,139.44392282414913L71.44,137.98934595574028L71.672,139.25522562537046L72.104,131.59659015739035L72.416,135.42146065992557L72.44,136.4858130226281L72.536,134.41512716073277L72.784,133.45850539162842L73.67999999999999,135.6073462741877L74.57600000000001,132.57789966726136L74.78399999999999,130.94325925865073L74.96000000000001,135.79211834246894L75.69600000000001,139.9109825244048L75.76,139.0394215991397L76.088,133.9331802116016L76.824,137.62011101759552L77.336,134.37864725937692L77.72,131.4226149885868L77.904,128.46976301882754L78.056,132.91431261786275L78.448,133.6772456448582L78.52799999999999,133.9209350217168L78.552,139.6014756680797L78.67200000000001,137.8115471097591L78.936,136.66750012791726L80.34400000000001,141.93110800756955L80.392,141.31561416173346L80.928,135.63685480029005L81.152,130.119886393968L81.232,132.50306713916285L81.512,137.0561075469102L82.776,136.9616571879533L83.056,137.2523275861828L83.376,136.9185295869721L84.288,141.07657052694637L84.61600000000001,141.27142163287925L85.52,135.6102738569458L85.752,134.98219558936037L85.792,138.89566684966292L85.864,133.80115124308074L86.58399999999999,135.20182989273275L86.608,137.99395661493423L86.83200000000001,137.96281829639446L86.912,139.95850733616453L87.376,136.19811378537716L87.656,139.03676984877845L87.928,139.09818917019047L88.408,137.07391652764605L89.4,135.2317917504016L89.872,140.43254394877573L90.08,141.02514205703312L90.104,140.8252675095946L90.272,140.744893701459L90.328,139.3452036648502L90.792,139.26668960071663L90.84,141.10599490533508L91.28800000000001,141.51468466836354L92.928,138.9920334544866L93.37599999999999,142.35109683635366L93.63199999999999,140.13855350670735L94.144,142.51715846056254L94.328,141.9103852502178L94.592,145.12722861915853L95.22399999999999,143.41218959182515L95.28,137.32321590318293L95.384,138.33603572527971L95.86399999999999,143.55966368425135L96.104,146.12017130916263L96.288,146.73350422321724L96.432,145.61884709043682L97.592,144.5304349989298L98.104,142.5843085366847L99.312,143.43938320090544L99.52,145.2304273905963L100.19200000000001,150.0495490454203L101.056,146.5491177810768L101.112,142.20463561655322L102.01599999999999,143.6003099847311L102.04,148.03686051230477L102.208,145.42231730417916L102.68,148.54508567033116L102.75999999999999,144.7097432167008L103.024,145.4644572774971L103.70400000000001,146.68634926619558L103.952,146.59287340745783L104.08,145.98459660493606L104.216,146.96798146555787L104.536,145.55383133961737L104.904,147.13492324893065L104.912,146.02832791374755L105.088,146.51992307503997L105.368,145.5756134335199L105.57600000000001,145.47469079856072L105.648,146.25787574369107L106.06400000000001,147.74581974338528L106.088,146.51652065371098L106.36,149.19484006437435L106.392,144.41595747911597L106.576,144.61352187897958L106.62400000000001,144.6010245552035L106.64,146.66816573463115L107.008,148.27339773151616L107.664,146.8440355903308L107.816,147.87189442295235L107.888,144.90815024204096L108.432,143.83847915109223L108.44800000000001,144.1320158877545L108.92800000000001,146.01324464511316L110.2,145.90519029874469L110.624,145.73122574376384L110.784,149.71453395925354L111.032,148.03093522852097L111.104,150.35157990097267L111.24000000000001,147.91698414667007L111.37599999999999,145.89575724552208L112.032,144.33707123647213L112.216,143.50098095327664L112.328,145.5739741950634L112.92,138.9256228822114L113.83200000000001,144.27776028718404L114.60000000000001,147.5015258401981L114.64,148.69679549100107L114.928,146.84705578145648L115.17599999999999,146.80436092927414L115.952,144.3676594752929L116.16,145.86296817911833L116.192,145.855129692474L116.32,147.7999959152057L116.65599999999999,149.5634131795832L117.168,145.99945434530588L117.19200000000001,142.98720652620005L117.32,140.60632705148066L118.088,146.41525506996715L118.51199999999999,150.6945866159018L119.27199999999999,149.16221728889641L120.216,150.8242955970873L120.44,146.31419805296918L121.28800000000001,146.4426370329181L121.86399999999999,145.84677290716883L122.36,149.64266890217334L122.984,151.88974095590595L123.12,147.01808496837427L123.336,146.85588115269707L123.504,148.31893568127214L123.60000000000001,146.76925573282756L123.72,147.45316978514185L123.752,150.71055762799574L123.888,149.0708254257758L124.17599999999999,151.87421350657462L124.496,152.26305972524196L124.75999999999999,146.9414197424315L125.64,150.97905001506783L126.064,150.75381744384114L126.096,151.2203171222171L126.256,151.08782736770874L126.88,152.96253680524765L127.21600000000001,147.0926338056974L127.624,147.42166292986784L127.80799999999999,150.11721052470713L128.28,151.6940160542304L128.304,153.4299093862121L129.056,148.439172773346L129.328,152.8104414242216L129.608,153.17770360694576L129.92000000000002,146.88935461512952L130.656,149.69989845974297L130.832,147.85264569018116L131.488,152.4563561687499L132.616,147.03544894315579L133.144,147.21522540623613L133.2,146.85962388480505L133.272,147.04791382291796L133.408,147.0395919015341L133.504,148.2079085318446L133.552,149.05408506342965L134.024,145.18561391482274L134.424,145.3512363252015L134.8,151.16054987586367L135.088,144.9619762699415L135.304,145.0966848701602L135.904,147.82529092552457L135.952,152.64980537452615L136.192,150.246002224634L136.264,149.89728727890048L136.344,148.26201130421754L137.07999999999998,151.28584853095887L137.088,152.4224974276607L137.15200000000002,152.0414426125279L137.184,152.7695257443502L137.32,150.63198682139205L137.832,152.43382497858934L137.984,147.24293229122122L139.064,147.86812743428843L139.568,148.8906691434989L139.936,149.58760263401328L140.28799999999998,153.62296577768362L140.976,155.21775805936358L141.44,155.65003534894845L141.624,150.62921438659228L142.63199999999998,148.19593758411207L142.648,152.10047442680795L142.904,153.13724033266027L143.152,147.15128282644184L143.624,148.6910224811504L144.768,148.45736439265428L144.95999999999998,147.77908861381383L145.03199999999998,148.40346109316295L145.448,151.80660320537612L145.472,146.45019259582358L146.68,147.57675780374046L146.792,149.00051426103653L147.608,150.52954128212298L147.776,144.55215670760413L148.84,142.91009656049374L149.416,148.99600939179L149.592,152.0542464264703L149.728,154.40240989129578L150.096,150.95920404394965L150.368,151.93047584553858L150.888,154.32985613471448L151.528,150.546639794466L151.568,151.66995111268187L152.136,153.49804249402737L152.424,149.11940112509444L153.31199999999998,148.67391099014748L153.32,152.16497242239436L153.59199999999998,150.63551373255643L153.704,150.14842712664043L154.04,153.04978245367667L155.376,150.12794672371982L155.624,147.81788497123344L155.89600000000002,151.1045149859978L156.464,150.89834899686934L156.76,152.42248999516067L157.024,152.9996138817463L157.168,152.54686970649524L157.184,154.79437762332975L157.37599999999998,150.3646110783002L157.38400000000001,153.89264021778988L157.408,154.18619455674224L157.56,154.33033383058864L157.84,155.34690612604635L158.088,148.27312725812445L158.4,149.30659932313512L158.48,152.1351031194219L159.192,151.71861501018736L159.304,153.78043692299048L159.536,154.4705485522051L159.6,156.84355878125425L159.83200000000002,156.60090432141698L160.624,153.96999905948525L162.47199999999998,154.62207842982622L162.696,157.08935891285626L162.768,158.49930072120878L162.992,155.728749619675L163.272,153.53020532732347L163.36800000000002,155.58808813997192L163.88,156.37433398420464L164.96,157.08850770486305L165.392,156.71257721558953L166.456,155.53355298345733L166.464,155.70825486375162L167.58399999999997,154.4595610349969L168.55200000000002,154.0433093070743L168.608,152.95451317785728L169.608,156.0705449005974L170.512,156.95726876980143L170.664,154.4555236390794L170.888,148.95280561396865L171.064,147.82111667126054L171.232,148.94387698290527L171.776,153.44724151761002L172.2,156.13259748803975L172.66400000000002,156.0103318920974L173.01600000000002,154.1012781122075L173.248,157.09329581039626L174.72799999999998,157.78526438962905L174.872,154.96627974326304L175.048,156.1705547177686L175.09599999999998,152.5368509364462L175.48,154.00274427616614L175.968,152.19788401554436L176.08,154.26983719208087L176.168,150.96417494299956L176.608,154.43803783217837L176.696,156.6304610314554L176.744,156.1050845852049L177.216,157.83345187081207L177.43200000000002,153.74105123901353L177.61599999999999,152.0530728005806L178.176,155.69864699302252L178.35199999999998,155.54357274656377L178.616,150.45978430083323L178.75199999999998,152.74985979499974L178.808,154.64228813997443L179.12800000000001,155.99510611783387L179.272,157.8853348703638L179.32000000000002,152.22455478180183L179.344,153.66649650018653L179.952,153.621081030257L179.95999999999998,153.7528864100898L180.336,154.6027145950193L180.584,154.47974925845037L180.79999999999998,156.26361380731564L180.824,156.5790337202877L180.864,156.9861810988941L181.432,152.30479247987816L181.51999999999998,154.67306837362378L181.912,156.72589553697304L182.368,155.98410289567747L182.72799999999998,150.6950841769499L183.05599999999998,152.97305744041537L183.16,154.1136253678771L183.168,156.6209918786966L183.34400000000002,154.93078696508508L183.472,156.31270079332174L184.36,155.30085361213037L184.528,154.47585893498191L185.08,154.50894348120488L185.10399999999998,156.13337482117095L185.11200000000002,153.35868469041077L185.49599999999998,155.35039536949884L185.688,156.41187928893302L186.744,152.66004050043108L187.384,155.22733746379743L187.488,156.92600066359915L187.99999999999997,156.4861998437608L188.51999999999998,157.79811151546824L188.704,159.41561134267403L189.376,157.44573993548883L189.39999999999998,157.40760337749202L189.44,158.36234030712095L189.976,158.59385563088526L190.12,158.35449361296338L190.72,159.45155085009938L191.032,157.26356277743542L192.296,157.7398739484721L192.632,158.5273904536331L192.64,157.71359307522562L193.16,157.96748788031928L193.208,157.14773760362263L193.416,157.14015766257324L193.58399999999997,155.81349768901433L193.632,156.56029682406523L194.584,156.83423055439437L194.896,158.35309023447383L196.608,156.08639291398254L196.80800000000002,154.3654849726311L196.91199999999998,155.58894538323193L197.184,155.66023183528648L197.376,157.28627598855337L197.488,159.03885091947083L197.712,159.1494513436053L198.624,160.1473928053266L198.904,157.86660512491582L199.2,154.29927079104095L199.928,155.11367136025058L200.912,153.6494036701339L200.968,155.59271731696631L201.56799999999998,157.61047905517879L202.288,159.09846522137482L202.312,159.6130379834272L203.488,157.98691329003358L203.52,158.04065033132426L203.864,159.1304881133214L203.95200000000003,157.96249650066548L204.03199999999998,156.73130860812736L204.304,155.35840720069768L204.384,156.41870774258592L204.59199999999998,158.0784982274736L204.952,156.13834906205128L205.136,155.52544094622885L205.54399999999998,156.41071819613828L205.736,156.07758920500947L205.888,158.39207582005525L206.264,159.2555840251068L207.168,158.96275925609785L207.56,158.0613725546399L208.208,158.84409898847733L208.29600000000002,153.41850258606908L208.45600000000002,155.08480317363086L209.04,154.25895299793646L209.49599999999998,156.3212866447252L210.352,154.8895542847245L211.48000000000002,154.68404621643597L211.792,154.9975262265172L212.024,156.06252044125995L212.33599999999998,156.6922355359868L212.72,158.53084978370822L213.10399999999998,156.3763078425862L213.12,157.91006461130803L213.424,155.92885850676234L213.608,157.54329339176417L214.17600000000002,156.2300237507224L215.304,154.4422217909853L215.816,155.64644786046108L216.184,154.49422487612264L216.424,157.7204257578643L216.6,158.39039477046282L216.66400000000002,159.09309952831836L217.64,160.00347119670056L217.88,159.5082338935193L218.05599999999998,158.1598923436437L218.32,158.41047747025692L218.912,155.8181759263464L219.22400000000002,154.81143338851462L219.912,156.49388809252181L220.49599999999998,157.67442379543223L220.696,158.92832615439517L220.8,156.00812945940748L220.872,157.34208552397482L221.504,157.1781274190974L221.976,158.17404051292527L222.888,158.6219182538604L223.008,159.41203721280587L223.64,159.85928059964792L224.336,160.4884180417622L225.04799999999997,158.77603015100746L225.344,159.71212386106424L225.624,157.9785401250818L226.216,158.9248076476692L227.08,159.9098422401968L227.208,160.2633920298809L227.37599999999998,158.79525619269177L227.448,158.93609699966964L227.576,159.727843072439L228.08,158.36541929180905L228.088,159.07542845831603L228.2,159.2976927641608L229.184,160.15756410759155L229.27200000000002,160.92108689568568L230.07199999999997,160.8846935733485L230.608,160.56785734967357L232.208,159.8394495667078L232.89600000000002,159.93380131573824L233.224,160.4624978758475L233.232,158.14189989810671L233.464,157.34544914481333L233.48,158.52399285768843L234.272,158.15355598957564L235.472,159.920143199091L235.984,156.68463884619365L236.032,158.56674605567252L236.08,156.33547868306832L236.112,157.59994026954212L236.12,158.99349375080212L236.72,160.12091176106716L237.04,160.35890023471427L237.48000000000002,160.93439589502321L238.44,160.938639323534L238.504,159.793725621574L238.888,157.87953357957176L239.424,157.60754062719568L239.672,158.74465408168686L239.75199999999998,159.43826030885648L239.808,160.41744820343737L239.952,160.71515450902652L240.40800000000002,161.47063693427017L240.76,160.2070057165005L241.448,160.8203124401795L242.17600000000002,161.16617976799074L242.192,161.50501709007648L242.44799999999998,160.80847948883033L242.59199999999998,160.2540885039313L244.856,158.14035629847507L245.06400000000002,159.5866867971551L245.416,159.27086507685772L245.856,157.70775880758637L246.352,159.19683440495834L246.456,160.2963604906607L247.192,157.2088259793962L247.42399999999998,158.02721504371235L247.736,158.3576924478066L249.976,156.7816620429388L250.608,158.9304603637277L250.816,159.16386930004867L250.992,160.00249752403465L251.144,160.95970382107498L251.344,160.51123786208947L251.472,160.55859095769875L251.56799999999998,159.83080023031087L251.696,158.28246214191506L251.912,159.66239964982105L252.45600000000002,159.98494838016373L252.952,161.11008912106763L254.61599999999999,160.533096628569L254.672,161.45332573915843L254.74400000000003,161.39784425784342L255.14399999999998,161.67088615576193L255.168,160.70279958429794L255.33599999999998,158.89784703304088L255.43200000000002,156.091390260953L255.58399999999997,157.01297728105286L255.736,156.38121215085525L256.824,157.26874855183763L257.472,158.5837031795474L257.48,159.3315734884476L257.752,159.89759117616228L258.272,159.34311008455165L258.848,159.98975380399412L258.888,160.1498629906093L259.096,157.99915944933784L259.464,159.3326304241015L259.584,160.27148129074732L260.24,160.60262411105015L260.584,160.0987924825194L260.79200000000003,159.82220980397122L261.12,160.74027422204864L261.464,161.4618803692351L262.52000000000004,158.63822367931348L262.576,159.59745930271313L262.608,160.08599002244253L263.424,160.69713676894017L263.744,160.35014086395088L264.49600000000004,161.2552010831572L264.608,160.13542830451354L264.752,160.46234766259704L40.288,161.14234238205054L42.464,161.12867078758896L42.888,161.5866046564934L43.84,159.7093479593887L45.296,160.9128242841849L45.592,161.4159450237968L46.344,161.98973033492254L47.616,161.81206409619443L47.824000000000005,162.22193348278444L48.144,162.28497389744376L48.512,161.2050795194943L49.032000000000004,161.0526854040686L49.088,160.92351436048529L49.152,161.20617131896682L49.536,161.93047253382426L49.608,161.29189454347227L50.08,161.39715617073773L50.184,161.386530376513L51.344,161.3670850554839L51.44,161.693869156474L51.704,162.00323288640675L52.04,162.15982498142398L52.56,162.43687375878136L53.152,162.6445264686678L53.528,162.7288625665787L54.048,162.86674964893774L54.28,162.7460885460188L54.384,161.46371238519808L54.408,161.62261112733717L54.93600000000001,160.17681389175277L54.96,161.33183883447992L55.304,162.00178949034625L55.696,161.05572745847553L56.144,161.12660653381258L57.2,160.73538193397945L57.256,161.6399911074371L57.263999999999996,161.84683940239188L57.32,160.86546071823898L58.064,160.83511508801456L58.16,161.17941859778588L58.264,159.88643522709702L58.32,160.28003401237288L59.232,160.63493655789927L59.263999999999996,161.14792446396171L59.480000000000004,161.66100041697027L59.495999999999995,161.05260594266417L60.032000000000004,160.06651198860663L60.216,160.59810022833938L60.776,160.65937882456976L60.856,160.05498181235072L60.992,161.0630714380693L61.048,161.63430990965378L61.071999999999996,162.15501402311375L61.272,161.65080328206926L62.36000000000001,161.3706666312111L63.096000000000004,158.4158971517181L63.152,159.74978754238163L63.872,160.21867941259865L63.943999999999996,161.20518835126077L64.03999999999999,161.7927144252333L64.192,161.95274635266202L64.328,161.66652789902253L64.76,161.8675063842529L64.856,162.26401624289863L65.056,162.53935295586726L65.29599999999999,162.33936996556287L65.352,162.3374128770399L65.816,162.03065545672584L66.184,162.18068469608718L66.336,162.27137188950616L66.392,162.2140829051898L66.76,162.55640501416144L67.176,162.74785851127444L67.2,161.365750407546L67.48,161.7912945855747L68.496,161.6534958225195L68.52,161.89628065284566L68.936,162.30716193174146L68.944,162.57794058283562L69.112,162.45195092001296L69.552,160.83647031181297L70.24799999999999,160.73286151271012L70.256,161.25008322655972L70.56,161.92106169271545L70.68,162.13048275836903L70.84,162.17919153861362L70.91199999999999,162.04069673230543L71.224,161.36143961549973L71.616,160.26603329182373L72.056,159.17446563790662L72.312,160.49617692458386L73.072,160.79507000000928L74.288,161.64519972574018L74.68,161.52227506074092L74.96799999999999,161.85865936671365L75.464,161.3959369686425L76.08000000000001,161.45806776472014L76.104,161.92261630277184L76.712,161.40574813622445L76.88,161.97061768899783L76.944,161.49101693817232L77.048,161.66813270171934L77.06400000000001,162.05033653163434L77.112,161.86124413284276L77.896,162.04342110839804L77.912,162.38429367762262L78.60799999999999,162.02508422591163L78.632,162.37036124657874L78.848,162.64652261476115L80.216,162.23087547736105L80.27199999999999,162.50790729124452L80.80000000000001,162.64437091458677L80.84,162.67628306513333L81.672,162.69946009340194L81.808,162.4997101299801L82.344,162.32514953929464L82.50399999999999,162.06964798473783L82.83200000000001,162.15011401477784L83.36,162.081171265016L83.77600000000001,162.36472160834148L83.896,162.26359928572768L84.016,160.2457060695167L84.144,161.3478873217793L84.248,160.6336765499726L84.528,161.48141421004152L84.68,162.09795747013797L84.73599999999999,161.6274630056038L86.6,162.11659440296802L87.08,162.22454202114292L87.32,162.49484050287057L87.47200000000001,162.5488168574107L88.184,162.71815153907755L88.49600000000001,162.55444430493426L88.52799999999999,162.6355543061519L88.60000000000001,162.6051933000142L88.648,162.67465165418687L88.848,162.40333943053963L89.304,162.0922005586667L89.648,161.9676416288024L90.472,162.38196286733867L90.96,162.30630213182968L91.39999999999999,162.33214322822374L91.664,162.5745986609608L92.536,162.66511591890776L92.584,162.63159871954812L92.656,162.3132830124642L93.688,161.43377555950755L93.96000000000001,160.37969368548755L94.536,160.2499018218213L96.008,161.18425624276512L96.16,161.7043047003889L96.504,160.76567470126017L97.05600000000001,161.27552738716798L98.776,161.76710887627908L99.58399999999999,161.43510726703968L100.024,161.96852810661753L100.14399999999999,162.31316107102688L100.696,161.77979637710325L100.96799999999999,161.92873284473364L101.56,162.2800814026915L101.688,160.46304095125137L101.77600000000001,161.41621764477654L102.048,159.87373920963145L102.688,160.16535703427158L103.176,160.99675456548172L103.18400000000001,161.40236303352975L103.64800000000001,162.01943052838195L103.808,159.87005522268979L104.152,160.68804886416376L104.19200000000001,160.52366556212772L104.76799999999999,161.3331324898082L105.896,161.38270338545013L106.08,161.43637974884967L106.088,161.80714370275405L106.112,161.85387557289422L107.176,162.26275003844106L107.94399999999999,162.47313591824135L108.416,162.35783213672983L108.50399999999999,161.35885839962728L110.43199999999999,161.57295491205912L110.77600000000001,160.97837217047172L111.104,161.65532179104525L111.664,162.23660472590026L111.888,162.05452466927446L112.29599999999999,160.79333149074006L113.072,161.2870115717336L113.136,160.6752939850639L113.32,161.42783943522278L113.36,161.591241457934L113.496,162.07244337444493L113.904,162.30976720974587L114.208,162.24071560038075L115.84,161.8038954528895L116.416,162.2574900293889L117.256,162.25441940112415L117.952,161.6876274120321L118.04799999999999,162.166675643865L118.304,161.9993887374016L118.52799999999999,162.07758106037005L119.224,161.96108783914562L119.304,161.61306949250746L119.35199999999999,161.9483251738122L119.384,162.26934128309713L119.63199999999999,162.51806757169595L119.648,161.79913240934985L119.76,161.88816444262213L119.80799999999999,161.08860713552048L120.392,156.24126030491158L122.368,158.91212006546192L122.42399999999999,160.1373238792745L123.07199999999999,161.21742355587574L123.2,161.91792712686268L123.28,162.29740551855846L123.41600000000001,162.38120844238014L124,161.93932906179435L124.216,162.04792235905464L124.776,161.7948963765673L125.32,161.87714335504901L125.44800000000001,161.5073970280363L125.976,161.57600975753013L126.36,161.79810645501004L126.48800000000001,162.33786864332237L126.72,162.0624889090769L126.92,161.97061431500492L127.072,162.39998961042582L127.12,162.32098187772664L128.224,162.51534307203258L128.288,162.52689913376855L128.8,162.61333078708563L129.016,162.60672305464533L130.096,162.7378835818401L130.152,162.07312144373742L130.29600000000002,162.09390672851038L131.12,162.2173806773877L131.312,162.47818064943363L131.35999999999999,160.93033313083893L131.392,160.7631323493714L131.50400000000002,161.53663665570983L132,162.0145402503041L132.54399999999998,161.52843288965192L132.76,161.85354077972272L133.28799999999998,162.32774138532739L133.392,162.39044339110052L133.648,162.41219052072375L133.792,162.6008117995701L133.872,162.69413345095765L134.04,162.4644776581213L134.912,162.4076859751434L135.472,162.56853395707455L135.936,162.66685534847133L136.256,161.88267996608627L136.472,161.5628286186074L136.696,161.35373143043904L137.192,162.0653826567981L137.496,162.01687657004317L137.76,162.15366208583794L137.89600000000002,162.39655008402625L138.208,162.0853841964632L140.144,162.2897859126429L140.27200000000002,162.47145556256152L141.42399999999998,162.52248597884662L141.84,162.5586261801714L142.192,162.5611678542372L142.47199999999998,162.68760183889168L142.712,162.85423629681864L142.904,162.4039853155152L143.096,162.64718413587067L143.16,162.274658966724L143.24800000000002,162.41071012583086L143.256,162.55943915401923L143.736,162.7556019229431L143.952,162.429947498604L143.984,162.22174206192156L144.10399999999998,162.41405329898166L144.31199999999998,162.6579794685565L144.39999999999998,161.72383744893605L144.488,160.26387902077914L144.75199999999998,161.02026215386766L145.432,161.39271710815953L145.856,161.89839534978574L145.88799999999998,161.99193887635872L145.992,160.57544984653475L146.632,161.3555726540305L146.66400000000002,162.0517349544558L146.88,161.19188671231626L146.952,161.85839845664518L147.648,162.19176573697555L147.704,161.83985210134384L148.05599999999998,162.16841993010198L148.48,162.0628229537675L148.76,162.43564140282612L148.792,162.5766176254379L149.28,162.5665949409824L150.05599999999998,162.536636784151L150.36,162.57877458479615L150.728,162.65666891235702L150.736,162.80947368802128L150.76000000000002,162.79469570758465L151.208,162.56128983139263L151.88000000000002,161.44419828890324L152.07199999999997,161.5488374581251L152.464,162.13637345888347L152.576,162.39580041954795L153.76,161.96174248480725L154,161.95457272173817L154.472,162.32910670715188L154.88,162.1748901873983L156.528,162.26030786443195L156.6,162.22300469586068L156.76,162.46453774413382L157.00799999999998,162.0122864277616L157.024,162.25488648720065L158.104,162.37349141222225L158.392,162.18849675418627L158.74400000000003,162.08266911319907L159.216,161.26163313088028L159.312,161.75529990770744L160.168,162.2733452802598L160.216,162.54676662067396L160.512,162.48468068709366L160.76000000000002,162.1916675513708L161.04000000000002,161.87185620044013L162.23999999999998,162.25933868666718L162.31199999999998,162.35033116415778L162.52800000000002,162.39157297101252L162.768,162.63000062833643L163.04,162.58211508592714L163.39999999999998,162.68420883021454L163.464,161.80333196025114L163.688,162.31980752158353L164.592,162.38531825641707L164.72,162.65399705736226L164.904,162.64372326820873L165.216,162.08915205631524L165.352,161.62808141745947L165.608,162.06004785549086L166.04,162.0637048040789L166.112,162.317362185615L166.38400000000001,162.3461244929866L166.66400000000002,162.58604183880766" style="fill: none;" fill="none"></path></g></g></g></g><g opacity="0.2"><g><g><g><path stroke="rgb(255, 112, 67)" stroke-width="2px" d="M53.080000000000005,-0.2858268817265639L53.104,34.76870709657672L53.96,14.535521109898895L54.136,15.418021023273496L54.224000000000004,43.33630784352624L54.544,60.46364053090416L54.68,25.282418767611205L54.784,62.450452287991865L55.495999999999995,36.763228515783965L55.976,70.88847412665687L56.70399999999999,39.74551502863568L56.8,82.97851516803108L57.056000000000004,72.13063154617947L57.104,66.82169808944069L57.304,54.69536328315736L57.664,74.2597537636757L58.32,80.71750644842786L58.696000000000005,78.7976679603259L58.832,95.01549481352171L58.848,80.37349814176561L58.888,70.14918649196626L59.088,89.49715384840967L59.096000000000004,85.74089064200722L59.192,76.46775855620704L59.232,100.65539557735127L59.464,88.38566724459332L59.583999999999996,68.25171663363777L59.632,56.922757168610914L40.327999999999996,69.57913124561311L40.768,83.18116788069409L42.584,90.3610824942589L43.151999999999994,122.73638952771825L43.176,130.9105610003074L43.64,71.662490606308L44.135999999999996,133.61557375888032L44.687999999999995,99.52134583393735L44.800000000000004,121.5794318318367L44.816,95.81408584117891L44.824,123.57706982890767L45.288,78.99431739250821L46.687999999999995,125.4753751953443L47.791999999999994,93.1473340491454L47.808,122.3767276008924L48.208,96.14729443192483L48.775999999999996,121.68478984634083L49.192,106.2223065296809L49.36,115.27667253216109L49.416,109.62953511873883L50.272,94.76245079437894L50.495999999999995,111.23472302158675L50.72,110.33096848924956L51.135999999999996,112.6859254539013L51.632000000000005,117.790875573953L52.416000000000004,119.43451011180878L52.663999999999994,124.62287400166196L52.704,98.51336940129599L53.384,115.45429978768033L53.400000000000006,128.6518200884263L54.048,125.77607412139577L54.784,128.1986497739951L54.92,113.40355176726979L55.088,115.25648329655331L56.16,105.14043404658636L56.19199999999999,132.59436623752117L56.256,118.19625173012417L57.152,121.52274990081787L57.263999999999996,112.27775100866955L57.568,133.61299208303294L57.664,134.27386573453745L58.00000000000001,115.4626769721508L58.616,112.18675135572752L59.248000000000005,124.44916346669197L59.263999999999996,142.11242818832397L59.696,120.74184600512189L59.92,103.32510480284692L60.76,116.03471710284552L61.608000000000004,117.56716275215149L61.72,124.01228998104733L62.208,123.3975682059924L63.24,128.6227231870095L64.28,115.7879858116309L64.632,137.138630737861L65.312,139.3541175276041L65.47200000000001,137.18118860324225L65.75999999999999,122.12992557883263L65.816,148.1044845680396L66.104,129.69560180107754L66.27199999999999,133.30347169439L66.768,133.7326974074046L66.928,116.73470049103102L67.816,121.96633397539458L67.896,128.15600791573524L68.448,146.25566316395998L68.55199999999999,130.05273952086768L68.6,136.12825829784077L68.70400000000001,131.4804769953092L69.16,127.10881122946739L69.344,137.31500694155693L69.856,133.4797572741906L71.008,148.54551238566637L71.44,135.80748065312704L71.672,141.15404512981576L72.104,120.1086369554202L72.416,141.15876641372842L72.44,138.08234156668186L72.536,131.30909836788973L72.784,132.02357273797196L73.67999999999999,138.8306075980266L74.57600000000001,128.03372975687188L74.78399999999999,128.4912986457348L74.96000000000001,143.06540696819624L75.69600000000001,146.08927879730862L75.76,137.73208021124205L76.088,126.2738181302945L76.824,143.15050722658634L77.336,129.51645162204903L77.72,126.9885665824016L77.904,124.04048506418866L78.056,139.5811370164156L78.448,134.82164518535137L78.52799999999999,134.28646908700466L78.552,148.12228663762411L78.67200000000001,135.12665427227816L78.936,134.95142965515456L80.34400000000001,149.826519827048L80.392,140.39237339297932L80.928,127.118715758125L81.152,121.84443378448486L81.232,136.07783825695515L81.512,143.8856681585312L82.776,136.819981649518L83.056,137.688333183527L83.376,136.41783258815607L84.288,147.31363193690777L84.61600000000001,141.56369829177856L85.52,127.11855219304562L85.752,134.04007818798226L85.792,144.76587374011677L85.864,126.15937783320746L86.58399999999999,137.30284786721072L86.608,142.18214669823647L86.83200000000001,137.91611081858477L86.912,142.95204089581966L87.376,130.5575234591961L87.656,143.2947539438804L87.928,139.19031815230846L88.408,134.03750756382942L89.4,132.46860458453497L89.872,148.23367224633694L90.08,141.91403921941918L90.104,140.52545568843684L90.272,140.6243329892556L90.328,137.24566860993704L90.792,139.1489185045163L90.84,143.86495286226273L91.28800000000001,142.12771931290627L92.928,135.20805663367113L93.37599999999999,147.38969190915427L93.63199999999999,136.81973851223788L94.144,146.08506589134535L94.328,141.00022543470067L94.592,149.9524936725696L95.22399999999999,140.83963105082512L95.28,128.18975537021956L95.384,139.8552654584249L95.86399999999999,151.3951056227088L96.104,149.96093274652958L96.288,147.65350359429917L96.432,143.9468613912662L97.592,142.89781686166924L98.104,139.66511884331703L99.312,144.72199519723654L99.52,147.9169936751326L100.19200000000001,157.27823152765632L101.056,141.29847088456154L101.112,135.68791236976784L102.01599999999999,145.69382153699797L102.04,154.69168630366525L102.208,141.50050249199074L102.68,153.2292382195592L102.75999999999999,138.9567295362552L103.024,146.59652836869162L103.70400000000001,148.51918724924326L103.952,146.45265961935124L104.08,145.07218140115341L104.216,148.44305875649056L104.536,143.43260615070662L104.904,149.50656111290058L104.912,144.36843491097292L105.088,147.25731581697863L105.368,144.15914897123974L105.57600000000001,145.32330684612197L105.648,147.43265316138667L106.06400000000001,149.9777357429266L106.088,144.67257201919955L106.36,153.21231918036938L106.392,137.24763360122842L106.576,144.90986847877502L106.62400000000001,144.5822785695394L106.64,149.7688775037726L107.008,150.68124572684368L107.664,144.69999237855276L107.816,149.41368267188471L107.888,140.4625339706739L108.432,142.23397251466912L108.44800000000001,144.57232099274796L108.92800000000001,148.83508778115115L110.2,145.74310877919197L110.624,145.47027891129255L110.784,155.6894962824881L111.032,145.50553713242215L111.104,153.83254690965018L111.24000000000001,144.2650905152162L111.37599999999999,142.8639168938001L112.032,141.99904222289723L112.216,142.2468455284834L112.328,148.68346405774355L112.92,128.95309591293335L113.83200000000001,152.305966394643L114.60000000000001,152.33717416971922L114.64,150.48969996720552L114.928,144.07244621713957L115.17599999999999,146.74031865100068L115.952,140.71260729432106L116.16,148.10593123485646L116.192,145.84337196250758L116.32,150.7172952493032L116.65599999999999,152.20853907614946L117.168,140.6535160938899L117.19200000000001,138.46883479754132L117.32,137.03500783940157L118.088,155.12864709769687L118.51199999999999,157.1135839348038L119.27199999999999,146.86366329838833L120.216,153.3174130593737L120.44,139.54905173679194L121.28800000000001,146.63529550284147L121.86399999999999,144.95297671854496L122.36,155.3365128946801L122.984,155.26034903650483L123.12,139.71060098707676L123.336,146.61257542918128L123.504,150.51351747413477L123.60000000000001,144.44473581016064L123.72,148.4790408636133L123.752,155.59663939227661L123.888,146.6112271224459L124.17599999999999,156.0792956277728L124.496,152.846329053243L124.75999999999999,138.95895976821583L125.64,157.0354954240223L126.064,150.41596858700117L126.096,151.920066639781L126.256,150.88909273594618L126.88,155.77460096155605L127.21600000000001,138.28777930637202L127.624,147.91520661612353L127.80799999999999,154.16053191696605L128.28,154.05922434851527L128.304,156.0337493841847L129.056,140.95306785404682L129.328,159.36734440053502L129.608,153.728596881032L129.92000000000002,137.45683112740517L130.656,153.9157142266631L130.832,145.08176653583845L131.488,159.36192188660303L132.616,138.90408810476464L133.144,147.48489010085663L133.2,146.32622160265845L133.272,147.33034873008728L133.408,147.0271090194583L133.504,149.96038347731036L133.552,150.32334986080727L134.024,139.38290719191235L134.424,145.59966994076967L134.8,159.87452020185688L135.088,135.66411586105824L135.304,145.29874777048826L135.904,151.91820000857115L135.952,159.8865770480285L136.192,146.64029749979576L136.264,149.37421486030024L136.344,145.80909734219313L137.07999999999998,155.82160437107086L137.088,154.12747077271342L137.15200000000002,151.46986038982868L137.184,153.8616504420837L137.32,147.42567843695483L137.832,155.13658221438527L137.984,139.45659326016903L139.064,148.80592014888924L139.568,150.42448170731467L139.936,150.63300286978483L140.28799999999998,159.6760104931891L140.976,157.60994648188353L141.44,156.29845128332576L141.624,143.097982943058L142.63199999999998,144.54602238039178L142.648,157.95727969085178L142.904,154.69238919143876L143.152,138.1723465671142L143.624,151.0006319632133L144.768,148.1068772599101L144.95999999999998,146.76167494555315L145.03199999999998,149.34001981218657L145.448,156.91131637369594L145.472,138.4155766814947L146.68,149.26660561561584L146.792,151.13614894698065L147.608,152.82308181375265L147.776,135.58607984582585L148.84,140.4470063398282L149.416,158.12487863873443L149.592,156.64160197849077L149.728,157.92465508853397L150.096,145.79439527293047L150.368,153.38738354792198L150.888,157.92892656847835L151.528,144.87181528409323L151.568,153.35491809000573L152.136,156.2401795660456L152.424,142.55143907169503L153.31199999999998,148.00567578772706L153.32,157.40156457076472L153.59199999999998,148.34132569779953L153.704,149.41779721776646L154.04,157.40181544423103L155.376,145.7451931287845L155.624,144.35279234250388L155.89600000000002,156.03446000814438L156.464,150.58910001317662L156.76,154.70870149259767L157.024,153.8652997116248L157.168,151.86775344361862L157.184,158.1656394985815L157.37599999999998,143.71996126075587L157.38400000000001,159.1846839270244L157.408,154.62652606517076L157.56,154.54654274135828L157.84,156.87176456923288L158.088,137.6624589562416L158.4,150.85680742065114L158.48,156.37785881385207L159.192,151.0938828463356L159.304,156.87316979219517L159.536,155.505715996027L159.6,160.40307412482798L159.83200000000002,156.23692263166112L160.624,150.02364116658768L162.47199999999998,155.60019748533767L162.696,160.7902796374013L162.768,160.61421343373755L162.992,151.57292296737432L163.272,150.23238888879618L163.36800000000002,158.67491235894462L163.88,157.5537027505537L164.96,158.1597682858507L165.392,156.1486814816793L166.456,153.765016635259L166.464,155.97030768419307L167.58399999999997,152.58652029186487L168.55200000000002,153.4189317151904L168.608,151.32131898403168L169.608,160.74459248470762L170.512,158.28735457360744L170.664,150.70290594299635L170.888,140.69872857630253L171.064,146.12358325719833L171.232,150.6280174503724L171.776,160.2022883196672L172.2,160.1606314436843L172.66400000000002,155.8269334981839L173.01600000000002,151.23769744237265L173.248,161.5813223576794L174.72799999999998,158.8232172584782L174.872,150.73780277371407L175.048,157.9769671795269L175.09599999999998,147.08629526446265L175.48,156.20158428574604L175.968,149.4905936246117L176.08,157.37776695688567L176.168,146.0056815693776L176.608,159.64883216594657L176.696,159.919095830371L176.744,155.31701991582912L177.216,160.42600279922286L177.43200000000002,147.60245029131573L177.61599999999999,149.52110514293116L178.176,161.1670082816854L178.35199999999998,155.31096137687564L178.616,142.83410163223743L178.75199999999998,156.1849730362495L178.808,157.48093065743646L179.12800000000001,158.02433308462304L179.272,160.7206779991587L179.32000000000002,143.73338464895886L179.344,155.82940907776356L179.952,153.55295782536268L179.95999999999998,153.95059447983903L180.336,155.87745687241357L180.584,154.29530125359696L180.79999999999998,158.93941063061357L180.824,157.05216358974576L180.864,157.5969021668037L181.432,145.28270955135426L181.51999999999998,158.22548221424222L181.912,159.80513628199697L182.368,154.87141393373412L182.72799999999998,142.76155609885853L183.05599999999998,156.39001733561358L183.16,155.82447725906968L183.168,160.38204164492586L183.34400000000002,152.39547959466776L183.472,158.38557153567672L184.36,153.78308284034333L184.528,153.23836691925925L185.08,154.55857030053934L185.10399999999998,158.57002183112004L185.11200000000002,149.1966494942705L185.49599999999998,158.337961388131L185.688,158.00410516808432L186.744,147.03228231767815L187.384,159.07828290884694L187.488,159.47399546330175L187.99999999999997,155.82649861400327L188.51999999999998,159.76597902302942L188.704,161.8418610834827L189.376,154.49093282471102L189.39999999999998,157.35039854049683L189.44,159.79444570156434L189.976,158.9411286165317L190.12,157.99545058608055L190.72,161.09713670580336L191.032,153.98158066843948L192.296,158.4543407050272L192.632,159.70866521137455L192.64,156.49289700761437L193.16,158.34833008795977L193.208,155.91811218857765L193.416,157.12878775099915L193.58399999999997,153.82350772867602L193.632,157.6804955266416L194.584,157.24513114988804L194.896,160.63137975459298L196.608,152.68634693324566L196.80800000000002,151.78412306060395L196.91199999999998,157.4241359991332L197.184,155.7671615133683L197.376,159.72534221845368L197.488,161.667713315847L197.712,159.31535197980702L198.624,161.64430499790856L198.904,154.44542360429963L199.2,148.9482692902287L199.928,156.33527221406501L200.912,151.45300213495892L200.968,158.50768778721493L201.56799999999998,160.63712166249752L202.288,161.33044447066882L202.312,160.38489712650576L203.488,155.5477262499432L203.52,158.12125589326024L203.864,160.76524478631714L203.95200000000003,156.21050908168158L204.03199999999998,154.8845267693202L204.304,153.2990550895532L204.384,158.00915855541825L204.59199999999998,160.56818395480514L204.952,153.22812531391781L205.136,154.6060787724952L205.54399999999998,157.73863407100242L205.736,155.57789571831626L205.888,161.8638057426239L206.264,160.55084633268416L207.168,158.52352210258445L207.56,156.70929250245294L208.208,160.0181886392335L208.29600000000002,145.28010798245668L208.45600000000002,157.58425405497354L209.04,153.02017773439488L209.49599999999998,159.4147871149083L210.352,152.7419557447235L211.48000000000002,154.37578411400318L211.792,155.46774624163908L212.024,157.66001176337403L212.33599999999998,157.63680817807716L212.72,161.2887711552903L213.10399999999998,153.14449493090314L213.12,160.2106997643908L213.424,152.95704934994382L213.608,159.96494571926692L214.17600000000002,154.26011928915977L215.304,151.76051885137957L215.816,157.4527869646748L216.184,152.765890399615L216.424,162.5597270804768L216.6,159.3953482893606L216.66400000000002,160.14715666510165L217.64,161.36902869927385L217.88,158.7653779387474L218.05599999999998,156.1373800188303L218.32,158.78635516017675L218.912,151.92972361048064L219.22400000000002,153.30131958176693L219.912,159.0175701485326L220.49599999999998,159.44522734979788L220.696,160.8091796928396L220.8,151.6278344169259L220.872,159.34301962082586L221.504,156.93219026178122L221.976,159.66791015366712L222.888,159.2937348652631L223.008,160.59721565122405L223.64,160.530145679911L224.336,161.43212420493364L225.04799999999997,156.20744831487536L225.344,161.11626442614943L225.624,155.3781645211081L226.216,160.34420893155038L227.08,161.38739412898818L227.208,160.793716714407L227.37599999999998,156.5930524369081L227.448,159.1473582101365L227.576,160.91546218159297L228.08,156.32178362086415L228.088,160.1404422080765L228.2,159.6310892229279L229.184,161.44737112273774L229.27200000000002,162.06637107782686L230.07199999999997,160.8301035898427L230.608,160.0926030141612L232.208,158.74683789225915L232.89600000000002,160.07532893928388L233.224,161.2555427160114L233.232,154.66100293149552L233.464,156.15077301487327L233.48,160.29180842700103L234.272,157.59790068740648L235.472,162.57002401336408L235.984,151.83138231684765L236.032,161.38990686989078L236.08,152.98857762416205L236.112,159.4966326492528L236.12,161.0838239726921L236.72,161.81203877646476L237.04,160.71588294518492L237.48000000000002,161.79763938548663L238.44,160.94500446630022L238.504,158.07635506863397L238.888,155.00824551656842L239.424,157.19955119863153L239.672,160.45032426342368L239.75199999999998,160.4786696496109L239.808,161.88623004530868L239.952,161.16171396741024L240.40800000000002,162.6038605721357L240.76,158.31155888984603L241.448,161.74027252569795L242.17600000000002,161.6849807597076L242.192,162.0132730732051L242.44799999999998,159.76367308696112L242.59199999999998,159.42250202658275L244.856,154.96975799029073L245.06400000000002,161.75618254517516L245.416,158.7971324964116L245.856,155.36309940367937L246.352,161.43044780101627L246.456,161.94564961921424L247.192,152.57752421249947L247.42399999999998,159.25479864018658L247.736,158.85340855394801L249.976,154.4176164356371L250.608,162.153657844911L250.816,159.51398270453015L250.992,161.26043986001363L251.144,162.39551326663545L251.344,159.83853892361125L251.472,160.62962060111263L251.56799999999998,158.73911413922906L251.696,155.9599550093214L251.912,161.73230591168007L252.45600000000002,160.4687714756777L252.952,162.79780023242347L254.61599999999999,159.66760788982114L254.672,162.8336694050425L254.74400000000003,161.31462203587094L255.14399999999998,162.0804490026397L255.168,159.25066972710192L255.33599999999998,156.1904182061553L255.43200000000002,151.8817051028212L255.58399999999997,158.39535781120262L255.736,155.43356445555887L256.824,158.60005315331122L257.472,160.55613512111208L257.48,160.45337895179787L257.752,160.74661770773432L258.272,158.5113884471357L258.848,160.9597193831578L258.888,160.39002677053213L259.096,154.7731041374306L259.464,161.332836886247L259.584,161.6797575907161L260.24,161.09933834150434L260.584,159.3430450397233L260.79200000000003,159.4073357861489L261.12,162.11737084916481L261.464,162.54428959001476L262.52000000000004,154.40273864443105L262.576,161.0363127378126L262.608,160.81878610203663L263.424,161.61385688868663L263.744,159.82964700646698L264.49600000000004,162.6127914119667L264.608,158.45576913654804L264.752,160.95272669972232L40.288,162.16233446123078L42.464,161.10816339589655L42.888,162.27350545985004L43.84,156.89346291373175L45.296,162.71803877137913L45.592,162.17062613321468L46.344,162.8504083016111L47.616,161.54556473810226L47.824000000000005,162.83673756266944L48.144,162.37953451943272L48.512,159.5852379525701L49.032000000000004,160.82409423093L49.088,160.72975779511034L49.152,161.63015675668916L49.536,163.0169243561104L49.608,160.33402755794427L50.08,161.55504861163595L50.184,161.3705916851759L51.344,161.33791707394025L51.44,162.1840453079591L51.704,162.4672784813059L52.04,162.39471312394986L52.56,162.85244692481743L53.152,162.95600553349746L53.528,162.85536671344502L54.048,163.07358027247633L54.28,162.56509689164037L54.384,159.540148143967L54.408,161.86095924054584L54.93600000000001,158.00811803837618L54.96,163.06437624857062L55.304,163.0067154741458L55.696,159.63663441066942L56.144,161.23292514681816L57.2,160.14854503422976L57.256,162.9969048676236L57.263999999999996,162.15711184482402L57.32,159.3933926920096L58.064,160.789596642678L58.16,161.69587386244288L58.264,157.94696017106375L58.32,160.8704321902866L59.232,161.16729037618884L59.263999999999996,161.91740632305542L59.480000000000004,162.4306143464831L59.495999999999995,160.140014231205L60.032000000000004,158.5873710575203L60.216,161.39548258793852L60.776,160.7512967189153L60.856,159.1483862940222L60.992,162.57520587664717L61.048,162.49116761703044L61.071999999999996,162.93607019330375L61.272,160.89448717050254L62.36000000000001,160.95046165492386L63.096000000000004,153.9837429324786L63.152,161.7506231283769L63.872,160.9220172179242L63.943999999999996,162.68495175925395L64.03999999999999,162.6740035361921L64.192,162.1927942438051L64.328,161.2372002185633L64.76,162.16897411209843L64.856,162.85878103086725L65.056,162.9523580253202L65.29599999999999,162.03939548010626L65.352,162.33447724425545L65.816,161.57051932625473L66.184,162.40572855512923L66.336,162.4074026796346L66.392,162.12814942871532L66.76,163.06988817761885L67.176,163.03503875694392L67.2,159.29258825195333L67.48,162.42961085261777L68.496,161.44679767793664L68.52,162.26045789833492L68.936,162.92348385008518L68.944,162.98410855947682L69.112,162.26296642577896L69.552,158.413249399513L70.24799999999999,160.5774483140558L70.256,162.02591579733416L70.56,162.92752939194907L70.68,162.44461435684934L70.84,162.25225470898053L70.91199999999999,161.83295452284315L71.224,160.3425539402912L71.616,158.6229238063097L72.056,157.537114157031L72.312,162.47874385459968L73.072,161.24340961314738L74.288,162.9203943143366L74.68,161.33788806324205L74.96799999999999,162.36323582567275L75.464,160.70185337153575L76.08000000000001,161.55126395883659L76.104,162.61943910984942L76.712,160.63044588640332L76.88,162.81792201815793L76.944,160.77161581193408L77.048,161.93380634703985L77.06400000000001,162.62364227650687L77.112,161.57760553465536L77.896,162.3166865717309L77.912,162.8956025314595L78.60799999999999,161.48627004834512L78.632,162.88827677757945L78.848,163.06076466703476L80.216,161.60740477126092L80.27199999999999,162.9234550120697L80.80000000000001,162.84906634960012L80.84,162.72415129095316L81.672,162.73422563580485L81.808,162.20008518484732L82.344,162.0633086532665L82.50399999999999,161.68639565290263L82.83200000000001,162.27081305983788L83.36,161.9777571403732L83.77600000000001,162.7900471233297L83.896,162.111915801807L84.016,157.21886624520025L84.144,163.0011592001732L84.248,159.56236039226255L84.528,162.7530207001449L84.68,163.02277236028263L84.73599999999999,160.92172130880257L86.6,162.85029149901433L87.08,162.38646344840527L87.32,162.90028822546205L87.47200000000001,162.62978138922094L88.184,162.9721535615778L88.49600000000001,162.30888345371932L88.52799999999999,162.75721930797832L88.60000000000001,162.55965179080764L88.648,162.7788391854459L88.848,161.99637109506875L89.304,161.62549225085726L89.648,161.78080323400596L90.472,163.0034447251431L90.96,162.1928110285662L91.39999999999999,162.3709048728148L91.664,162.93828181006634L92.536,162.80089180582823L92.584,162.58132292050868L92.656,161.83580945183834L93.688,160.11451438007256L93.96000000000001,158.79857087445757L94.536,160.05521402632198L96.008,162.58578787418082L96.16,162.48437738682455L96.504,159.35772970256707L97.05600000000001,162.04030641602972L98.776,162.50448110994571L99.58399999999999,160.93710485318056L100.024,162.7686593659843L100.14399999999999,162.83011051764092L100.696,160.97974933621785L100.96799999999999,162.1521375461792L101.56,162.80710423962833L101.688,157.73748027409118L101.77600000000001,162.84598268506429L102.048,157.56002155691385L102.688,160.60278377123177L103.176,162.2438508622969L103.18400000000001,162.01077573560178L103.64800000000001,162.94503177066022L103.808,156.64599226415157L104.152,161.91503932637474L104.19200000000001,160.27709060907364L104.76799999999999,162.54733288132897L105.896,161.457059728913L106.08,161.516894293949L106.088,162.3632896336106L106.112,161.92397337810448L107.176,162.87606173676127L107.94399999999999,162.78871473794183L108.416,162.18487646446252L108.50399999999999,159.86039779397348L110.43199999999999,161.89409968070686L110.77600000000001,160.0864980580906L111.104,162.67074622190557L111.664,163.10852912818277L111.888,161.78140458433577L112.29599999999999,158.90154172293842L113.072,162.02753169322386L113.136,159.75771760505936L113.32,162.55665761046112L113.36,161.83634449200085L113.496,162.79424624921134L113.904,162.6657529626973L114.208,162.1371381863331L115.84,161.14866523165256L116.416,162.93788189413803L117.256,162.24981345872706L117.952,160.83743942839405L118.04799999999999,162.88524799161436L118.304,161.7484583777065L118.52799999999999,162.19486954482272L119.224,161.78634800730893L119.304,161.09104197255024L119.35199999999999,162.4512086957693L119.384,162.7508654470245L119.63199999999999,162.8911570045942L119.648,160.72072966583073L119.76,162.02171249253055L119.80799999999999,159.88927117486796L120.392,148.9702400589983L122.368,162.9184097062874L122.42399999999999,161.97512959999344L123.07199999999999,162.83757307077758L123.2,162.9686824833431L123.28,162.86662310610214L123.41600000000001,162.50691282811263L124,161.27650999091566L124.216,162.21081230494505L124.776,161.4153574028363L125.32,162.0005138227716L125.44800000000001,160.95277753751725L125.976,161.67892885177085L126.36,162.1312515012299L126.48800000000001,163.14751192579084L126.72,161.64941930770874L126.92,161.83280242389688L127.072,163.04405255355718L127.12,162.20247027867785L128.224,162.8068848634915L128.288,162.54423322637254L128.8,162.7429782670612L129.016,162.59681145598492L130.096,162.93462437263224L130.152,161.07597823658338L130.29600000000002,162.12508465566984L131.12,162.4025916007037L131.312,162.86938060750253L131.35999999999999,158.60856185294688L131.392,160.51233117717007L131.50400000000002,162.69689311521748L132,162.7313956421955L132.54399999999998,160.7992718486736L132.76,162.34120261482894L133.28799999999998,163.03904229373438L133.392,162.48449639976025L133.648,162.44481121515855L133.792,162.88374371783962L133.872,162.83411592803895L134.04,162.11999396886677L134.912,162.3224984506766L135.472,162.80980592997125L135.936,162.8143374355665L136.256,160.70641689250866L136.472,161.08305159738907L136.696,161.0400856481865L137.192,163.1328594963367L137.496,161.94411743991077L137.76,162.3588403595301L137.89600000000002,162.76088208130872L138.208,161.6186353651186L140.144,162.59638848691247L140.27200000000002,162.74396003743945L141.42399999999998,162.59903160327426L141.84,162.61283648215854L142.192,162.56498036533594L142.47199999999998,162.87725281587336L142.712,163.10418798370907L142.904,161.72860884356L143.096,163.01198236640388L143.16,161.715871213004L143.24800000000002,162.61478686449118L143.256,162.78253269630173L143.736,163.04984607632892L143.952,161.94146586209536L143.984,161.9094339068979L144.10399999999998,162.70252015457177L144.31199999999998,163.02386872291876L144.39999999999998,160.3226244195054L144.488,158.0739413785438L144.75199999999998,162.15483685350046L145.432,161.95139953959733L145.856,162.65691271222508L145.88799999999998,162.13225416621813L145.992,158.45071630179882L146.632,162.52575686527416L146.66400000000002,163.09597840509377L146.88,159.90211434910694L146.952,162.8581660731385L147.648,162.69181665747115L147.704,161.31198164789626L148.05599999999998,162.66127167323916L148.48,161.9044274892658L148.76,162.99486907641403L148.792,162.78808195935562L149.28,162.55156091429913L150.05599999999998,162.49169954890385L150.36,162.6419812857639L150.728,162.7735104036983L150.736,163.0386808515177L150.76000000000002,162.77252873692973L151.208,162.21118101710454L151.88000000000002,159.76856097516915L152.07199999999997,161.70579621195793L152.464,163.01767746002102L152.576,162.78494086054465L153.76,161.3106555826962L154,161.94381807713458L154.472,162.8909076852724L154.88,161.9435654077679L156.528,162.38843437998244L156.6,162.1670499430038L156.76,162.82683731654348L157.00799999999998,161.3339094532033L157.024,162.6187865763592L158.104,162.55139879975468L158.392,161.9110047671323L158.74400000000003,161.92392765171826L159.216,160.03007915740213L159.312,162.49580007294813L160.168,163.05041333908835L160.216,162.9568986312952L160.512,162.39155178672323L160.76000000000002,161.75214784778655L161.04000000000002,161.39213917404413L162.23999999999998,162.84056241600774L162.31199999999998,162.48681988039365L162.52800000000002,162.45343568129465L162.768,162.9876421143223L163.04,162.5102867723132L163.39999999999998,162.83734944664562L163.464,160.482016655306L163.688,163.09452086358215L164.592,162.48358435866734L164.72,163.05701525878007L164.904,162.6283125844784L165.216,161.257295238475L165.352,160.9364754591758L165.608,162.707997512538L166.04,162.06919022696093L166.112,162.69784825791916L166.38400000000001,162.38926795404404L166.66400000000002,162.94591785753923" style="fill: none;" fill="none"></path></g></g></g></g></g></g><g transform="translate(50, 178)" clip-path="url(#clip_1)"><clipPath id="clip_1"><rect width="280" height="22"></rect></clipPath><g><g><line x1="0" y1="0" x2="0" y2="5" style="visibility: inherit;" fill="rgb(0, 0, 0)" stroke="rgb(204, 204, 204)" stroke-width="1px"></line><line x1="40" y1="0" x2="40" y2="5" style="visibility: inherit;" fill="rgb(0, 0, 0)" stroke="rgb(204, 204, 204)" stroke-width="1px"></line><line x1="80" y1="0" x2="80" y2="5" style="visibility: inherit;" fill="rgb(0, 0, 0)" stroke="rgb(204, 204, 204)" stroke-width="1px"></line><line x1="120" y1="0" x2="120" y2="5" style="visibility: inherit;" fill="rgb(0, 0, 0)" stroke="rgb(204, 204, 204)" stroke-width="1px"></line><line x1="160" y1="0" x2="160" y2="5" style="visibility: inherit;" fill="rgb(0, 0, 0)" stroke="rgb(204, 204, 204)" stroke-width="1px"></line><line x1="200" y1="0" x2="200" y2="5" style="visibility: inherit;" fill="rgb(0, 0, 0)" stroke="rgb(204, 204, 204)" stroke-width="1px"></line><line x1="240" y1="0" x2="240" y2="5" style="visibility: inherit;" fill="rgb(0, 0, 0)" stroke="rgb(204, 204, 204)" stroke-width="1px"></line><line x1="280" y1="0" x2="280" y2="5" style="visibility: inherit;" fill="rgb(0, 0, 0)" stroke="rgb(204, 204, 204)" stroke-width="1px"></line></g><g transform="translate(0, 8)"><text x="0" y="0" dx="0em" dy="0.95em" style="text-anchor: middle; visibility: hidden; font-family: &quot;Helvetica Neue&quot;, sans-serif; font-size: 12px; font-weight: 200;" fill="rgb(50, 49, 63)" stroke="none" stroke-width="1px">-5k</text><text x="40" y="0" dx="0em" dy="0.95em" style="text-anchor: middle; visibility: inherit; font-family: &quot;Helvetica Neue&quot;, sans-serif; font-size: 12px; font-weight: 200;" fill="rgb(50, 49, 63)" stroke="none" stroke-width="1px">0</text><text x="80" y="0" dx="0em" dy="0.95em" style="text-anchor: middle; visibility: inherit; font-family: &quot;Helvetica Neue&quot;, sans-serif; font-size: 12px; font-weight: 200;" fill="rgb(50, 49, 63)" stroke="none" stroke-width="1px">5k</text><text x="120" y="0" dx="0em" dy="0.95em" style="text-anchor: middle; visibility: inherit; font-family: &quot;Helvetica Neue&quot;, sans-serif; font-size: 12px; font-weight: 200;" fill="rgb(50, 49, 63)" stroke="none" stroke-width="1px">10k</text><text x="160" y="0" dx="0em" dy="0.95em" style="text-anchor: middle; visibility: inherit; font-family: &quot;Helvetica Neue&quot;, sans-serif; font-size: 12px; font-weight: 200;" fill="rgb(50, 49, 63)" stroke="none" stroke-width="1px">15k</text><text x="200" y="0" dx="0em" dy="0.95em" style="text-anchor: middle; visibility: inherit; font-family: &quot;Helvetica Neue&quot;, sans-serif; font-size: 12px; font-weight: 200;" fill="rgb(50, 49, 63)" stroke="none" stroke-width="1px">20k</text><text x="240" y="0" dx="0em" dy="0.95em" style="text-anchor: middle; visibility: inherit; font-family: &quot;Helvetica Neue&quot;, sans-serif; font-size: 12px; font-weight: 200;" fill="rgb(50, 49, 63)" stroke="none" stroke-width="1px">25k</text><text x="280" y="0" dx="0em" dy="0.95em" style="text-anchor: middle; visibility: hidden; font-family: &quot;Helvetica Neue&quot;, sans-serif; font-size: 12px; font-weight: 200;" fill="rgb(50, 49, 63)" stroke="none" stroke-width="1px">30k</text></g><line x1="0" y1="0" x2="280" y2="0" fill="rgb(0, 0, 0)" stroke="rgb(204, 204, 204)" stroke-width="1px"></line></g></g></g></g></svg>